<svg width="1200" height="679.442" xmlns="http://www.w3.org/2000/svg" xmlns:xlink="http://www.w3.org/1999/xlink" id="svg897" overflow="hidden"><defs id="defs901"></defs><g id="g905" transform="matrix(1.46341 0 0 1.46341 0 0.417914)"><path d="M0 333C0 333 106 268 145 253 184 238 207 230 245 201 284 171 333 110 350 97 367 85 367 89 399 78 439 64 494-20 515 4 527 19 559 111 573 73 579 57 592 31 605 41 619 52 616 50 630 101 644 152 650 149 668 167 687 184 673 176 693 216 714 256 755 301 770 325 780 343 788 357 791 362 747 348 664 324 568 308 559 291 558 263 556 253 548 213 496 225 514 192 520 179 603 103 575 107 558 110 528 116 522 119 437 155 542 35 456 72 448 76 425 72 411 87 398 102 380 84 364 102 348 120 358 128 332 149 307 170 308 171 286 186 265 201 262 222 243 229 225 236 190 253 178 253 165 253 115 283 109 289 104 296 0 333 0 333Z" id="path39" fill="#002060"/><path d="M35 356C35 356 247 299 441 313 634 327 820 394 820 394L748 413C592 354 431 336 431 336 431 336 585 385 674 433L553 464C553 464 428 389 344 365 261 341 35 356 35 356Z" id="path41" fill="#002060"/></g></svg>